<svg width="500" height="500" viewBox="0 0 500 500" fill="none" xmlns="http://www.w3.org/2000/svg">
<rect width="500" height="500" rx="250" fill="#121111"/>
<path fill-rule="evenodd" clip-rule="evenodd" d="M250 0C111.929 0 0 111.929 0 250C0 325.714 33.658 393.567 86.8279 439.412C89.9406 428.565 93.6009 417.034 97.8826 404.835C94.4855 405.845 88.1741 409.771 82.3456 415.958C83.7642 378.531 104.136 349.076 115.934 332.017C120.271 325.746 123.45 321.15 124.102 318.45C124.559 316.561 124.449 312.517 124.302 307.116C124.194 303.168 124.067 298.494 124.127 293.406C122.204 268.103 122.102 209.294 135.725 205.416C146.756 202.275 152.349 201.297 154.686 201.147C155.198 197.526 155.923 193.85 156.81 190.182C157.018 190.992 157.226 191.801 157.435 192.61L157.435 192.61C158.369 196.237 159.304 199.865 160.163 203.509C160.646 205.553 161.537 206.705 163.617 206.746C166.89 206.811 169.928 207.998 172.887 209.224C180.624 212.423 188.021 216.242 193.014 223.644C193.114 223.791 193.223 223.945 193.336 224.103C194.074 225.141 194.96 226.386 194.238 227.416C193.424 228.567 192.398 227.882 191.464 227.258C191.187 227.073 190.919 226.894 190.667 226.77C182.825 222.891 174.691 219.954 166.122 218.447C160.629 217.486 155.089 217.074 149.585 218.273L149.538 218.283C146.793 218.237 144.199 218.346 144.625 221.463C145.121 225.088 145.966 228.283 146.576 230.591L146.576 230.592C146.756 231.273 146.915 231.876 147.04 232.391L147.063 232.374C150.416 245.981 156.461 257.293 164.859 265.292C167.359 265.898 170.087 266.026 173.035 265.642C192.482 263.11 206.971 251.983 218.397 236.037C221.317 231.962 220.713 229.015 217.275 225.426C212.592 220.544 207.092 216.828 201.593 213.113C200.368 212.285 199.143 211.458 197.927 210.617C197.686 210.449 197.392 210.308 197.093 210.165C196.222 209.748 195.308 209.31 195.508 208.119C195.695 207.004 196.747 206.689 197.728 206.395C197.986 206.317 198.24 206.241 198.471 206.153C206.492 203.067 214.441 203.818 222.36 206.687C226.554 208.203 230.809 209.581 235.225 210.196C240.131 210.88 242.295 209.258 243.515 204.268C244.675 199.521 244.636 194.668 244.597 189.848L244.593 189.304C244.543 181.922 243.537 174.654 240.535 167.879C238.103 162.392 235.667 161.053 230.008 161.819C228.422 162.033 226.853 162.409 225.299 162.783C216.009 165.03 207.151 168.667 198.525 172.752C191.297 176.17 184.608 176.249 177.665 172.365C177.491 172.267 177.315 172.169 177.138 172.07L177.131 172.066L177.123 172.061L177.122 172.06C173.977 170.297 170.362 168.271 167.189 169.15C165.626 169.581 164.374 169.679 163.356 169.522C166.947 160.215 170.997 151.839 174.457 145.636C173.924 134.94 174.925 119.407 188.686 109.972C186.742 114.519 185.772 119.577 187.229 124.247C187.229 121.72 220.936 77.6175 249.583 86.716C261.518 90.5079 276.24 111.581 290.772 132.385C303.921 151.208 316.916 169.81 327.554 175.191C302.022 176.708 289.253 196.265 283.58 208.787C294.972 196.816 310.005 190.415 316.589 189.685C342.146 182.864 387.56 214.003 397.474 241.036C400.993 250.634 403.298 259.509 405.366 267.473L405.366 267.474C409.29 282.585 412.363 294.421 421.267 301.704C424.623 304.451 431.503 307.19 440.072 310.601L440.072 310.601C453.432 315.921 470.899 322.875 485.523 334.041C494.896 307.777 500 279.484 500 250C500 111.929 388.071 0 250 0ZM374.237 466.994C375.214 434.641 372.89 403.406 369.268 390.249C363.3 418.053 354.995 450.416 345.982 480.911C355.728 476.856 365.161 472.201 374.237 466.994ZM212.476 497.203C226.963 422.162 250.408 329.548 264.914 290.455C242.175 317.116 219.769 367.291 201.758 418.467C172.805 388.151 159.397 327.797 158.553 299.155C145.905 370.728 164.457 416.377 191.474 449.234C187.038 463.217 182.999 476.931 179.442 489.905C190.171 493.055 201.2 495.505 212.476 497.203ZM161.151 175.535C160.72 176.778 160.3 178.031 159.893 179.293C161.104 182.156 162.717 184.798 164.856 187.076C165.666 187.942 166.687 188.326 168.16 188.031L168.159 188.023C170.8 187.063 173.47 185.509 175.934 183.613C177.246 182.606 176.429 181.896 175.373 181.454L175.372 181.453L175.369 181.452C170.638 179.461 165.906 177.47 161.151 175.535ZM194.452 198.522C190.756 202.504 186.284 205.065 181.556 206.07L181.548 206.063C176.881 206.556 169.695 198.667 170.321 194.356C170.572 192.643 171.623 191.928 173.182 192.043C174.584 192.144 175.836 192.821 176.755 193.885C178.822 196.289 181.179 196.565 184.103 195.829C185.389 195.503 186.58 194.971 187.768 194.441C188.832 193.965 189.893 193.492 191.014 193.169C192.662 192.692 194.246 192.68 195.302 194.357C196.33 195.984 195.486 197.413 194.452 198.522ZM211.638 188.37C214.501 187.844 216.652 186.161 218.676 184.259C221.333 181.767 223.675 178.96 225.78 175.953C225.837 175.874 225.897 175.793 225.959 175.71C226.36 175.171 226.811 174.566 226.472 173.896C226.014 173.001 225.333 173.302 224.72 173.573C224.537 173.654 224.361 173.732 224.197 173.775C215.881 176 207.583 178.262 199.29 180.578L199.224 180.596C198.176 180.885 196.208 181.428 198.169 182.877C202.192 185.85 206.582 188.192 211.637 188.362L211.638 188.37Z" fill="url(#paint0_linear_829_4707)"/>
<defs>
<linearGradient id="paint0_linear_829_4707" x1="116" y1="23.5" x2="432.5" y2="460" gradientUnits="userSpaceOnUse">
<stop stop-color="white"/>
<stop offset="0.203125" stop-color="#C1A875"/>
<stop offset="0.338542" stop-color="#A08C62"/>
<stop offset="0.526042" stop-color="#C1A875"/>
<stop offset="0.661458" stop-color="#ECE0C8"/>
<stop offset="0.833333" stop-color="#C1A875"/>
<stop offset="1" stop-color="white"/>
</linearGradient>
</defs>
</svg>
